<svg id="visual" viewBox="0 0 900 600" width="900" height="600" xmlns="http://www.w3.org/2000/svg" xmlns:xlink="http://www.w3.org/1999/xlink" version="1.1"><rect x="0" y="0" width="900" height="600" fill="#ffc951"></rect><path d="M0 190L12.5 190.7C25 191.3 50 192.7 75 179.5C100 166.3 125 138.7 150 131C175 123.3 200 135.7 225 130C250 124.3 275 100.7 300 116.3C325 132 350 187 375 191.8C400 196.7 425 151.3 450 122.8C475 94.3 500 82.7 525 89.2C550 95.7 575 120.3 600 126.8C625 133.3 650 121.7 675 119.5C700 117.3 725 124.7 750 120.2C775 115.7 800 99.3 825 98.7C850 98 875 113 887.5 120.5L900 128L900 601L887.5 601C875 601 850 601 825 601C800 601 775 601 750 601C725 601 700 601 675 601C650 601 625 601 600 601C575 601 550 601 525 601C500 601 475 601 450 601C425 601 400 601 375 601C350 601 325 601 300 601C275 601 250 601 225 601C200 601 175 601 150 601C125 601 100 601 75 601C50 601 25 601 12.5 601L0 601Z" fill="#d83a5d"></path><path d="M0 236L12.5 239C25 242 50 248 75 240.2C100 232.3 125 210.7 150 194.3C175 178 200 167 225 170.3C250 173.7 275 191.3 300 191.3C325 191.3 350 173.7 375 165C400 156.3 425 156.7 450 173.8C475 191 500 225 525 239.7C550 254.3 575 249.7 600 233.8C625 218 650 191 675 174.3C700 157.7 725 151.3 750 154.2C775 157 800 169 825 192.8C850 216.7 875 252.3 887.5 270.2L900 288L900 601L887.5 601C875 601 850 601 825 601C800 601 775 601 750 601C725 601 700 601 675 601C650 601 625 601 600 601C575 601 550 601 525 601C500 601 475 601 450 601C425 601 400 601 375 601C350 601 325 601 300 601C275 601 250 601 225 601C200 601 175 601 150 601C125 601 100 601 75 601C50 601 25 601 12.5 601L0 601Z" fill="#e24859"></path><path d="M0 281L12.5 275.2C25 269.3 50 257.7 75 258.5C100 259.3 125 272.7 150 273.2C175 273.7 200 261.3 225 267.8C250 274.3 275 299.7 300 291.3C325 283 350 241 375 240.8C400 240.7 425 282.3 450 292.2C475 302 500 280 525 279.7C550 279.3 575 300.7 600 300.2C625 299.7 650 277.3 675 252.7C700 228 725 201 750 210.8C775 220.7 800 267.3 825 267.5C850 267.7 875 221.3 887.5 198.2L900 175L900 601L887.5 601C875 601 850 601 825 601C800 601 775 601 750 601C725 601 700 601 675 601C650 601 625 601 600 601C575 601 550 601 525 601C500 601 475 601 450 601C425 601 400 601 375 601C350 601 325 601 300 601C275 601 250 601 225 601C200 601 175 601 150 601C125 601 100 601 75 601C50 601 25 601 12.5 601L0 601Z" fill="#ea5754"></path><path d="M0 252L12.5 261.2C25 270.3 50 288.7 75 308.2C100 327.7 125 348.3 150 342.3C175 336.3 200 303.7 225 285.5C250 267.3 275 263.7 300 274.7C325 285.7 350 311.3 375 322C400 332.7 425 328.3 450 330C475 331.7 500 339.3 525 328C550 316.7 575 286.3 600 274C625 261.7 650 267.3 675 281.8C700 296.3 725 319.7 750 330.2C775 340.7 800 338.3 825 342.5C850 346.7 875 357.3 887.5 362.7L900 368L900 601L887.5 601C875 601 850 601 825 601C800 601 775 601 750 601C725 601 700 601 675 601C650 601 625 601 600 601C575 601 550 601 525 601C500 601 475 601 450 601C425 601 400 601 375 601C350 601 325 601 300 601C275 601 250 601 225 601C200 601 175 601 150 601C125 601 100 601 75 601C50 601 25 601 12.5 601L0 601Z" fill="#f26651"></path><path d="M0 322L12.5 317.3C25 312.7 50 303.3 75 316.3C100 329.3 125 364.7 150 375.8C175 387 200 374 225 369.3C250 364.7 275 368.3 300 368.7C325 369 350 366 375 371.8C400 377.7 425 392.3 450 383.3C475 374.3 500 341.7 525 328.7C550 315.7 575 322.3 600 331.3C625 340.3 650 351.7 675 365.3C700 379 725 395 750 387.5C775 380 800 349 825 328.2C850 307.3 875 296.7 887.5 291.3L900 286L900 601L887.5 601C875 601 850 601 825 601C800 601 775 601 750 601C725 601 700 601 675 601C650 601 625 601 600 601C575 601 550 601 525 601C500 601 475 601 450 601C425 601 400 601 375 601C350 601 325 601 300 601C275 601 250 601 225 601C200 601 175 601 150 601C125 601 100 601 75 601C50 601 25 601 12.5 601L0 601Z" fill="#f36950"></path><path d="M0 354L12.5 368C25 382 50 410 75 415.2C100 420.3 125 402.7 150 398.2C175 393.7 200 402.3 225 411.8C250 421.3 275 431.7 300 427.3C325 423 350 404 375 397.5C400 391 425 397 450 389.2C475 381.3 500 359.7 525 353.3C550 347 575 356 600 359.7C625 363.3 650 361.7 675 364.7C700 367.7 725 375.3 750 383.8C775 392.3 800 401.7 825 396.5C850 391.3 875 371.7 887.5 361.8L900 352L900 601L887.5 601C875 601 850 601 825 601C800 601 775 601 750 601C725 601 700 601 675 601C650 601 625 601 600 601C575 601 550 601 525 601C500 601 475 601 450 601C425 601 400 601 375 601C350 601 325 601 300 601C275 601 250 601 225 601C200 601 175 601 150 601C125 601 100 601 75 601C50 601 25 601 12.5 601L0 601Z" fill="#f26651"></path><path d="M0 435L12.5 441.7C25 448.3 50 461.7 75 461.7C100 461.7 125 448.3 150 437.2C175 426 200 417 225 410C250 403 275 398 300 409.2C325 420.3 350 447.7 375 456.8C400 466 425 457 450 448.3C475 439.7 500 431.3 525 434C550 436.7 575 450.3 600 454.3C625 458.3 650 452.7 675 455.2C700 457.7 725 468.3 750 474.8C775 481.3 800 483.7 825 478.5C850 473.3 875 460.7 887.5 454.3L900 448L900 601L887.5 601C875 601 850 601 825 601C800 601 775 601 750 601C725 601 700 601 675 601C650 601 625 601 600 601C575 601 550 601 525 601C500 601 475 601 450 601C425 601 400 601 375 601C350 601 325 601 300 601C275 601 250 601 225 601C200 601 175 601 150 601C125 601 100 601 75 601C50 601 25 601 12.5 601L0 601Z" fill="#ea5754"></path><path d="M0 453L12.5 455.3C25 457.7 50 462.3 75 465.5C100 468.7 125 470.3 150 474.3C175 478.3 200 484.7 225 489.3C250 494 275 497 300 489.8C325 482.7 350 465.3 375 461.3C400 457.3 425 466.7 450 479.2C475 491.7 500 507.3 525 504.3C550 501.3 575 479.7 600 472.8C625 466 650 474 675 477.8C700 481.7 725 481.3 750 478.5C775 475.7 800 470.3 825 475.7C850 481 875 497 887.5 505L900 513L900 601L887.5 601C875 601 850 601 825 601C800 601 775 601 750 601C725 601 700 601 675 601C650 601 625 601 600 601C575 601 550 601 525 601C500 601 475 601 450 601C425 601 400 601 375 601C350 601 325 601 300 601C275 601 250 601 225 601C200 601 175 601 150 601C125 601 100 601 75 601C50 601 25 601 12.5 601L0 601Z" fill="#e24859"></path><path d="M0 572L12.5 568.2C25 564.3 50 556.7 75 551.5C100 546.3 125 543.7 150 540.2C175 536.7 200 532.3 225 534C250 535.7 275 543.3 300 551C325 558.7 350 566.3 375 564.2C400 562 425 550 450 549.7C475 549.3 500 560.7 525 556.5C550 552.3 575 532.7 600 528.5C625 524.3 650 535.7 675 543.5C700 551.3 725 555.7 750 551.3C775 547 800 534 825 527.7C850 521.3 875 521.7 887.5 521.8L900 522L900 601L887.5 601C875 601 850 601 825 601C800 601 775 601 750 601C725 601 700 601 675 601C650 601 625 601 600 601C575 601 550 601 525 601C500 601 475 601 450 601C425 601 400 601 375 601C350 601 325 601 300 601C275 601 250 601 225 601C200 601 175 601 150 601C125 601 100 601 75 601C50 601 25 601 12.5 601L0 601Z" fill="#d83a5d"></path></svg>