<svg id="visual" viewBox="0 0 930 300" width="930" height="300" xmlns="http://www.w3.org/2000/svg" xmlns:xlink="http://www.w3.org/1999/xlink" version="1.1"><rect x="0" y="0" width="930" height="300" fill="#42507f"></rect><path d="M0 161L9.2 163.5C18.3 166 36.7 171 54.8 173.7C73 176.3 91 176.7 109.2 179.3C127.3 182 145.7 187 164 188.3C182.3 189.7 200.7 187.3 219 182.7C237.3 178 255.7 171 273.8 171.7C292 172.3 310 180.7 328.2 182.2C346.3 183.7 364.7 178.3 383 180.2C401.3 182 419.7 191 437.8 190.8C456 190.7 474 181.3 492.2 176C510.3 170.7 528.7 169.3 547 168.8C565.3 168.3 583.7 168.7 601.8 173.7C620 178.7 638 188.3 656.2 190.7C674.3 193 692.7 188 711 188.2C729.3 188.3 747.7 193.7 766 194.3C784.3 195 802.7 191 820.8 189.2C839 187.3 857 187.7 875.2 189.2C893.3 190.7 911.7 193.3 920.8 194.7L930 196L930 301L920.8 301C911.7 301 893.3 301 875.2 301C857 301 839 301 820.8 301C802.7 301 784.3 301 766 301C747.7 301 729.3 301 711 301C692.7 301 674.3 301 656.2 301C638 301 620 301 601.8 301C583.7 301 565.3 301 547 301C528.7 301 510.3 301 492.2 301C474 301 456 301 437.8 301C419.7 301 401.3 301 383 301C364.7 301 346.3 301 328.2 301C310 301 292 301 273.8 301C255.7 301 237.3 301 219 301C200.7 301 182.3 301 164 301C145.7 301 127.3 301 109.2 301C91 301 73 301 54.8 301C36.7 301 18.3 301 9.2 301L0 301Z" fill="#d36e93"></path><path d="M0 215L9.2 214.2C18.3 213.3 36.7 211.7 54.8 207.5C73 203.3 91 196.7 109.2 193.7C127.3 190.7 145.7 191.3 164 190.8C182.3 190.3 200.7 188.7 219 187.3C237.3 186 255.7 185 273.8 183.2C292 181.3 310 178.7 328.2 178.3C346.3 178 364.7 180 383 186.7C401.3 193.3 419.7 204.7 437.8 203.8C456 203 474 190 492.2 188.7C510.3 187.3 528.7 197.7 547 197.2C565.3 196.7 583.7 185.3 601.8 186.2C620 187 638 200 656.2 202.8C674.3 205.7 692.7 198.3 711 194.7C729.3 191 747.7 191 766 190.7C784.3 190.3 802.7 189.7 820.8 187.5C839 185.3 857 181.7 875.2 179.8C893.3 178 911.7 178 920.8 178L930 178L930 301L920.8 301C911.7 301 893.3 301 875.2 301C857 301 839 301 820.8 301C802.7 301 784.3 301 766 301C747.7 301 729.3 301 711 301C692.7 301 674.3 301 656.2 301C638 301 620 301 601.8 301C583.7 301 565.3 301 547 301C528.7 301 510.3 301 492.2 301C474 301 456 301 437.8 301C419.7 301 401.3 301 383 301C364.7 301 346.3 301 328.2 301C310 301 292 301 273.8 301C255.7 301 237.3 301 219 301C200.7 301 182.3 301 164 301C145.7 301 127.3 301 109.2 301C91 301 73 301 54.8 301C36.7 301 18.3 301 9.2 301L0 301Z" fill="#e2758d"></path><path d="M0 212L9.2 213.2C18.3 214.3 36.7 216.7 54.8 216.8C73 217 91 215 109.2 212.2C127.3 209.3 145.7 205.7 164 204.8C182.3 204 200.7 206 219 204.7C237.3 203.3 255.7 198.7 273.8 200.3C292 202 310 210 328.2 214C346.3 218 364.7 218 383 217.8C401.3 217.7 419.7 217.3 437.8 217.2C456 217 474 217 492.2 213.2C510.3 209.3 528.7 201.7 547 202.2C565.3 202.7 583.7 211.3 601.8 216.3C620 221.3 638 222.7 656.2 220.2C674.3 217.7 692.7 211.3 711 207.2C729.3 203 747.7 201 766 200.3C784.3 199.7 802.7 200.3 820.8 201.7C839 203 857 205 875.2 205.5C893.3 206 911.7 205 920.8 204.5L930 204L930 301L920.8 301C911.7 301 893.3 301 875.2 301C857 301 839 301 820.8 301C802.7 301 784.3 301 766 301C747.7 301 729.3 301 711 301C692.7 301 674.3 301 656.2 301C638 301 620 301 601.8 301C583.7 301 565.3 301 547 301C528.7 301 510.3 301 492.2 301C474 301 456 301 437.8 301C419.7 301 401.3 301 383 301C364.7 301 346.3 301 328.2 301C310 301 292 301 273.8 301C255.7 301 237.3 301 219 301C200.7 301 182.3 301 164 301C145.7 301 127.3 301 109.2 301C91 301 73 301 54.8 301C36.7 301 18.3 301 9.2 301L0 301Z" fill="#ee7d85"></path><path d="M0 218L9.2 219.2C18.3 220.3 36.7 222.7 54.8 224.7C73 226.7 91 228.3 109.2 226.3C127.3 224.3 145.7 218.7 164 218.7C182.3 218.7 200.7 224.3 219 223.5C237.3 222.7 255.7 215.3 273.8 212.8C292 210.3 310 212.7 328.2 217.8C346.3 223 364.7 231 383 234.3C401.3 237.7 419.7 236.3 437.8 230.8C456 225.3 474 215.7 492.2 213.7C510.3 211.7 528.7 217.3 547 217.7C565.3 218 583.7 213 601.8 210.2C620 207.3 638 206.7 656.2 210.3C674.3 214 692.7 222 711 224.3C729.3 226.7 747.7 223.3 766 221.3C784.3 219.3 802.7 218.7 820.8 218.8C839 219 857 220 875.2 219C893.3 218 911.7 215 920.8 213.5L930 212L930 301L920.8 301C911.7 301 893.3 301 875.2 301C857 301 839 301 820.8 301C802.7 301 784.3 301 766 301C747.7 301 729.3 301 711 301C692.7 301 674.3 301 656.2 301C638 301 620 301 601.8 301C583.7 301 565.3 301 547 301C528.7 301 510.3 301 492.2 301C474 301 456 301 437.8 301C419.7 301 401.3 301 383 301C364.7 301 346.3 301 328.2 301C310 301 292 301 273.8 301C255.7 301 237.3 301 219 301C200.7 301 182.3 301 164 301C145.7 301 127.3 301 109.2 301C91 301 73 301 54.8 301C36.7 301 18.3 301 9.2 301L0 301Z" fill="#f7877e"></path><path d="M0 249L9.2 246.7C18.3 244.3 36.7 239.7 54.8 235.7C73 231.7 91 228.3 109.2 228.2C127.3 228 145.7 231 164 234.3C182.3 237.7 200.7 241.3 219 244.3C237.3 247.3 255.7 249.7 273.8 248.8C292 248 310 244 328.2 239.2C346.3 234.3 364.7 228.7 383 230.5C401.3 232.3 419.7 241.7 437.8 241.7C456 241.7 474 232.3 492.2 229.2C510.3 226 528.7 229 547 233C565.3 237 583.7 242 601.8 242C620 242 638 237 656.2 237.2C674.3 237.3 692.7 242.7 711 243.8C729.3 245 747.7 242 766 240.3C784.3 238.7 802.7 238.3 820.8 235.7C839 233 857 228 875.2 227.8C893.3 227.7 911.7 232.3 920.8 234.7L930 237L930 301L920.8 301C911.7 301 893.3 301 875.2 301C857 301 839 301 820.8 301C802.7 301 784.3 301 766 301C747.7 301 729.3 301 711 301C692.7 301 674.3 301 656.2 301C638 301 620 301 601.8 301C583.7 301 565.3 301 547 301C528.7 301 510.3 301 492.2 301C474 301 456 301 437.8 301C419.7 301 401.3 301 383 301C364.7 301 346.3 301 328.2 301C310 301 292 301 273.8 301C255.7 301 237.3 301 219 301C200.7 301 182.3 301 164 301C145.7 301 127.3 301 109.2 301C91 301 73 301 54.8 301C36.7 301 18.3 301 9.2 301L0 301Z" fill="#fe9376"></path><path d="M0 248L9.2 248C18.3 248 36.7 248 54.8 247.3C73 246.7 91 245.3 109.2 248C127.3 250.7 145.7 257.3 164 258.8C182.3 260.3 200.7 256.7 219 255.7C237.3 254.7 255.7 256.3 273.8 255C292 253.7 310 249.3 328.2 249C346.3 248.7 364.7 252.3 383 252.5C401.3 252.7 419.7 249.3 437.8 248.3C456 247.3 474 248.7 492.2 251.3C510.3 254 528.7 258 547 257.5C565.3 257 583.7 252 601.8 248.5C620 245 638 243 656.2 243.7C674.3 244.3 692.7 247.7 711 249.7C729.3 251.7 747.7 252.3 766 252.3C784.3 252.3 802.7 251.7 820.8 253.5C839 255.3 857 259.7 875.2 257.5C893.3 255.3 911.7 246.7 920.8 242.3L930 238L930 301L920.8 301C911.7 301 893.3 301 875.2 301C857 301 839 301 820.8 301C802.7 301 784.3 301 766 301C747.7 301 729.3 301 711 301C692.7 301 674.3 301 656.2 301C638 301 620 301 601.8 301C583.7 301 565.3 301 547 301C528.7 301 510.3 301 492.2 301C474 301 456 301 437.8 301C419.7 301 401.3 301 383 301C364.7 301 346.3 301 328.2 301C310 301 292 301 273.8 301C255.7 301 237.3 301 219 301C200.7 301 182.3 301 164 301C145.7 301 127.3 301 109.2 301C91 301 73 301 54.8 301C36.7 301 18.3 301 9.2 301L0 301Z" fill="#ffa170"></path><path d="M0 256L9.2 256.5C18.3 257 36.7 258 54.8 258.3C73 258.7 91 258.3 109.2 259.3C127.3 260.3 145.7 262.7 164 265.5C182.3 268.3 200.7 271.7 219 270.5C237.3 269.3 255.7 263.7 273.8 263.2C292 262.7 310 267.3 328.2 267C346.3 266.7 364.7 261.3 383 258.5C401.3 255.7 419.7 255.3 437.8 255.8C456 256.3 474 257.7 492.2 260.5C510.3 263.3 528.7 267.7 547 267.5C565.3 267.3 583.7 262.7 601.8 263.2C620 263.7 638 269.3 656.2 270.3C674.3 271.3 692.7 267.7 711 265.2C729.3 262.7 747.7 261.3 766 260.7C784.3 260 802.7 260 820.8 262.3C839 264.7 857 269.3 875.2 270.2C893.3 271 911.7 268 920.8 266.5L930 265L930 301L920.8 301C911.7 301 893.3 301 875.2 301C857 301 839 301 820.8 301C802.7 301 784.3 301 766 301C747.7 301 729.3 301 711 301C692.7 301 674.3 301 656.2 301C638 301 620 301 601.8 301C583.7 301 565.3 301 547 301C528.7 301 510.3 301 492.2 301C474 301 456 301 437.8 301C419.7 301 401.3 301 383 301C364.7 301 346.3 301 328.2 301C310 301 292 301 273.8 301C255.7 301 237.3 301 219 301C200.7 301 182.3 301 164 301C145.7 301 127.3 301 109.2 301C91 301 73 301 54.8 301C36.7 301 18.3 301 9.2 301L0 301Z" fill="#ffaf6b"></path><path d="M0 278L9.2 279.2C18.3 280.3 36.7 282.7 54.8 283.5C73 284.3 91 283.7 109.2 283C127.3 282.3 145.7 281.7 164 280.2C182.3 278.7 200.7 276.3 219 276C237.3 275.7 255.7 277.3 273.8 277.7C292 278 310 277 328.2 276.5C346.3 276 364.7 276 383 275.7C401.3 275.3 419.7 274.7 437.8 274C456 273.3 474 272.7 492.2 274C510.3 275.3 528.7 278.7 547 278.8C565.3 279 583.7 276 601.8 275.8C620 275.7 638 278.3 656.2 278.3C674.3 278.3 692.7 275.7 711 274.8C729.3 274 747.7 275 766 276C784.3 277 802.7 278 820.8 278C839 278 857 277 875.2 277.7C893.3 278.3 911.7 280.7 920.8 281.8L930 283L930 301L920.8 301C911.7 301 893.3 301 875.2 301C857 301 839 301 820.8 301C802.7 301 784.3 301 766 301C747.7 301 729.3 301 711 301C692.7 301 674.3 301 656.2 301C638 301 620 301 601.8 301C583.7 301 565.3 301 547 301C528.7 301 510.3 301 492.2 301C474 301 456 301 437.8 301C419.7 301 401.3 301 383 301C364.7 301 346.3 301 328.2 301C310 301 292 301 273.8 301C255.7 301 237.3 301 219 301C200.7 301 182.3 301 164 301C145.7 301 127.3 301 109.2 301C91 301 73 301 54.8 301C36.7 301 18.3 301 9.2 301L0 301Z" fill="#ffbe68"></path></svg>