<svg id="visual" viewBox="0 0 900 600" width="900" height="600" xmlns="http://www.w3.org/2000/svg" xmlns:xlink="http://www.w3.org/1999/xlink" version="1.1"><g stroke-width="2" stroke-linejoin="bevel"><path d="M511 287.9L588 322.9L573 292.1Z" fill="#ca2862" stroke="#ffc951"></path><path d="M511 287.9L514 397.6L588 322.9Z" fill="#ff9949" stroke="#ffc951"></path><path d="M514 397.6L579 403.6L588 322.9Z" fill="#ca2862" stroke="#ffc951"></path><path d="M579 403.6L605 384.9L588 322.9Z" fill="#ff9949" stroke="#ffc951"></path><path d="M588 322.9L601 226.4L573 292.1Z" fill="#ee6052" stroke="#ffc951"></path><path d="M573 292.1L572 211.1L511 287.9Z" fill="#d5365e" stroke="#ffc951"></path><path d="M703 305.9L601 226.4L588 322.9Z" fill="#d5365e" stroke="#ffc951"></path><path d="M601 226.4L572 211.1L573 292.1Z" fill="#b00b69" stroke="#ffc951"></path><path d="M398 201.4L389 314.1L511 287.9Z" fill="#d5365e" stroke="#ffc951"></path><path d="M511 287.9L389 314.1L514 397.6Z" fill="#ff9949" stroke="#ffc951"></path><path d="M389 314.1L392 394.9L514 397.6Z" fill="#de445a" stroke="#ffc951"></path><path d="M514 397.6L601 489.3L579 403.6Z" fill="#f46e4f" stroke="#ffc951"></path><path d="M605 384.9L703 305.9L588 322.9Z" fill="#ee6052" stroke="#ffc951"></path><path d="M579 403.6L601 489.3L605 384.9Z" fill="#f46e4f" stroke="#ffc951"></path><path d="M605 384.9L686 480.3L703 305.9Z" fill="#bd1a65" stroke="#ffc951"></path><path d="M417 476.6L601 489.3L514 397.6Z" fill="#f46e4f" stroke="#ffc951"></path><path d="M572 211.1L398 201.4L511 287.9Z" fill="#ee6052" stroke="#ffc951"></path><path d="M601 226.4L672 191.4L572 211.1Z" fill="#ca2862" stroke="#ffc951"></path><path d="M572 211.1L508 116.7L398 201.4Z" fill="#e75256" stroke="#ffc951"></path><path d="M703 305.9L672 191.4L601 226.4Z" fill="#bd1a65" stroke="#ffc951"></path><path d="M392 394.9L417 476.6L514 397.6Z" fill="#bd1a65" stroke="#ffc951"></path><path d="M513 600L617 510.3L601 489.3Z" fill="#de445a" stroke="#ffc951"></path><path d="M601 489.3L667 493.6L605 384.9Z" fill="#ca2862" stroke="#ffc951"></path><path d="M617 510.3L667 493.6L601 489.3Z" fill="#f97c4c" stroke="#ffc951"></path><path d="M667 493.6L686 480.3L605 384.9Z" fill="#de445a" stroke="#ffc951"></path><path d="M658 114.7L508 116.7L572 211.1Z" fill="#b00b69" stroke="#ffc951"></path><path d="M703 305.9L715 196.1L672 191.4Z" fill="#e75256" stroke="#ffc951"></path><path d="M672 191.4L658 114.7L572 211.1Z" fill="#b00b69" stroke="#ffc951"></path><path d="M750 257.1L715 196.1L703 305.9Z" fill="#bd1a65" stroke="#ffc951"></path><path d="M861 277.9L750 257.1L703 305.9Z" fill="#f97c4c" stroke="#ffc951"></path><path d="M508 116.7L418 125.7L398 201.4Z" fill="#ff9949" stroke="#ffc951"></path><path d="M327 215.4L309 262.1L389 314.1Z" fill="#ee6052" stroke="#ffc951"></path><path d="M288 401.6L294 415.6L392 394.9Z" fill="#f46e4f" stroke="#ffc951"></path><path d="M392 394.9L294 415.6L417 476.6Z" fill="#ff9949" stroke="#ffc951"></path><path d="M327 215.4L389 314.1L398 201.4Z" fill="#de445a" stroke="#ffc951"></path><path d="M376 106.4L327 215.4L398 201.4Z" fill="#f97c4c" stroke="#ffc951"></path><path d="M715 196.1L658 114.7L672 191.4Z" fill="#ff9949" stroke="#ffc951"></path><path d="M288 401.6L392 394.9L389 314.1Z" fill="#e75256" stroke="#ffc951"></path><path d="M309 262.1L288 401.6L389 314.1Z" fill="#ff9949" stroke="#ffc951"></path><path d="M750 257.1L755 175.4L715 196.1Z" fill="#e75256" stroke="#ffc951"></path><path d="M715 196.1L761 154.7L658 114.7Z" fill="#e75256" stroke="#ffc951"></path><path d="M508 600L601 489.3L417 476.6Z" fill="#de445a" stroke="#ffc951"></path><path d="M508 600L513 600L601 489.3Z" fill="#b00b69" stroke="#ffc951"></path><path d="M617 510.3L700 600L667 493.6Z" fill="#bd1a65" stroke="#ffc951"></path><path d="M381 557.3L508 600L417 476.6Z" fill="#fc8b4a" stroke="#ffc951"></path><path d="M391 52.7L376 106.4L418 125.7Z" fill="#ca2862" stroke="#ffc951"></path><path d="M418 125.7L376 106.4L398 201.4Z" fill="#f46e4f" stroke="#ffc951"></path><path d="M391 52.7L418 125.7L508 116.7Z" fill="#ca2862" stroke="#ffc951"></path><path d="M294 415.6L381 557.3L417 476.6Z" fill="#bd1a65" stroke="#ffc951"></path><path d="M755 175.4L761 154.7L715 196.1Z" fill="#fc8b4a" stroke="#ffc951"></path><path d="M782 167.4L761 154.7L755 175.4Z" fill="#fc8b4a" stroke="#ffc951"></path><path d="M861 277.9L782 167.4L750 257.1Z" fill="#b00b69" stroke="#ffc951"></path><path d="M750 257.1L782 167.4L755 175.4Z" fill="#fc8b4a" stroke="#ffc951"></path><path d="M312 600L388 584.3L381 557.3Z" fill="#e75256" stroke="#ffc951"></path><path d="M381 557.3L388 584.3L508 600Z" fill="#f46e4f" stroke="#ffc951"></path><path d="M288 401.6L249 437.6L294 415.6Z" fill="#bd1a65" stroke="#ffc951"></path><path d="M294 415.6L244 492.3L381 557.3Z" fill="#de445a" stroke="#ffc951"></path><path d="M214 396.9L249 437.6L288 401.6Z" fill="#d5365e" stroke="#ffc951"></path><path d="M446 0L391 52.7L508 116.7Z" fill="#ee6052" stroke="#ffc951"></path><path d="M224 127.7L222 224.1L327 215.4Z" fill="#b00b69" stroke="#ffc951"></path><path d="M667 493.6L700 600L686 480.3Z" fill="#ca2862" stroke="#ffc951"></path><path d="M686 480.3L840 444.6L703 305.9Z" fill="#fc8b4a" stroke="#ffc951"></path><path d="M513 600L700 600L617 510.3Z" fill="#f46e4f" stroke="#ffc951"></path><path d="M761 154.7L769 103.7L658 114.7Z" fill="#e75256" stroke="#ffc951"></path><path d="M658 114.7L506 0L508 116.7Z" fill="#d5365e" stroke="#ffc951"></path><path d="M782 167.4L769 103.7L761 154.7Z" fill="#f46e4f" stroke="#ffc951"></path><path d="M857 497.3L840 444.6L686 480.3Z" fill="#fc8b4a" stroke="#ffc951"></path><path d="M782 167.4L900 144.7L769 103.7Z" fill="#f46e4f" stroke="#ffc951"></path><path d="M840 444.6L861 277.9L703 305.9Z" fill="#d5365e" stroke="#ffc951"></path><path d="M677 0L506 0L658 114.7Z" fill="#ff9949" stroke="#ffc951"></path><path d="M309 262.1L214 396.9L288 401.6Z" fill="#de445a" stroke="#ffc951"></path><path d="M206 233.4L214 396.9L309 262.1Z" fill="#d5365e" stroke="#ffc951"></path><path d="M222 224.1L309 262.1L327 215.4Z" fill="#f46e4f" stroke="#ffc951"></path><path d="M224 127.7L327 215.4L376 106.4Z" fill="#ca2862" stroke="#ffc951"></path><path d="M227 508.3L244 492.3L249 437.6Z" fill="#ca2862" stroke="#ffc951"></path><path d="M249 437.6L244 492.3L294 415.6Z" fill="#f97c4c" stroke="#ffc951"></path><path d="M506 0L446 0L508 116.7Z" fill="#de445a" stroke="#ffc951"></path><path d="M700 600L749 600L686 480.3Z" fill="#ff9949" stroke="#ffc951"></path><path d="M224 127.7L206 233.4L222 224.1Z" fill="#de445a" stroke="#ffc951"></path><path d="M222 224.1L206 233.4L309 262.1Z" fill="#fc8b4a" stroke="#ffc951"></path><path d="M244 492.3L312 600L381 557.3Z" fill="#bd1a65" stroke="#ffc951"></path><path d="M388 584.3L312 600L508 600Z" fill="#fc8b4a" stroke="#ffc951"></path><path d="M769 103.7L677 0L658 114.7Z" fill="#bd1a65" stroke="#ffc951"></path><path d="M244 492.3L311 600L312 600Z" fill="#b00b69" stroke="#ffc951"></path><path d="M749 600L857 497.3L686 480.3Z" fill="#ff9949" stroke="#ffc951"></path><path d="M840 444.6L900 304.9L861 277.9Z" fill="#fc8b4a" stroke="#ffc951"></path><path d="M214 396.9L227 508.3L249 437.6Z" fill="#ca2862" stroke="#ffc951"></path><path d="M244 492.3L227 508.3L311 600Z" fill="#bd1a65" stroke="#ffc951"></path><path d="M900 448.6L900 304.9L840 444.6Z" fill="#ff9949" stroke="#ffc951"></path><path d="M861 277.9L900 217.4L782 167.4Z" fill="#f97c4c" stroke="#ffc951"></path><path d="M900 304.9L900 242.1L861 277.9Z" fill="#ca2862" stroke="#ffc951"></path><path d="M769 103.7L783 0L677 0Z" fill="#e75256" stroke="#ffc951"></path><path d="M243 0L224 127.7L376 106.4Z" fill="#ee6052" stroke="#ffc951"></path><path d="M358 0L376 106.4L391 52.7Z" fill="#ca2862" stroke="#ffc951"></path><path d="M446 0L358 0L391 52.7Z" fill="#d5365e" stroke="#ffc951"></path><path d="M900 242.1L900 217.4L861 277.9Z" fill="#fc8b4a" stroke="#ffc951"></path><path d="M900 467.3L900 448.6L840 444.6Z" fill="#e75256" stroke="#ffc951"></path><path d="M749 600L809 600L857 497.3Z" fill="#de445a" stroke="#ffc951"></path><path d="M857 497.3L900 467.3L840 444.6Z" fill="#de445a" stroke="#ffc951"></path><path d="M140 317.1L160 391.9L214 396.9Z" fill="#d5365e" stroke="#ffc951"></path><path d="M214 396.9L160 391.9L227 508.3Z" fill="#de445a" stroke="#ffc951"></path><path d="M140 317.1L214 396.9L206 233.4Z" fill="#b00b69" stroke="#ffc951"></path><path d="M900 600L900 467.3L857 497.3Z" fill="#ff9949" stroke="#ffc951"></path><path d="M36 239.1L140 317.1L206 233.4Z" fill="#fc8b4a" stroke="#ffc951"></path><path d="M900 217.4L900 144.7L782 167.4Z" fill="#b00b69" stroke="#ffc951"></path><path d="M785 0L783 0L769 103.7Z" fill="#fc8b4a" stroke="#ffc951"></path><path d="M900 0L785 0L769 103.7Z" fill="#f46e4f" stroke="#ffc951"></path><path d="M358 0L243 0L376 106.4Z" fill="#bd1a65" stroke="#ffc951"></path><path d="M224 127.7L112 112.4L206 233.4Z" fill="#bd1a65" stroke="#ffc951"></path><path d="M809 600L900 600L857 497.3Z" fill="#de445a" stroke="#ffc951"></path><path d="M227 508.3L163 600L311 600Z" fill="#ee6052" stroke="#ffc951"></path><path d="M147 600L163 600L227 508.3Z" fill="#ff9949" stroke="#ffc951"></path><path d="M147 600L227 508.3L75 490.6Z" fill="#f97c4c" stroke="#ffc951"></path><path d="M243 0L202 0L224 127.7Z" fill="#ee6052" stroke="#ffc951"></path><path d="M75 490.6L227 508.3L160 391.9Z" fill="#de445a" stroke="#ffc951"></path><path d="M116 92.7L112 112.4L224 127.7Z" fill="#f46e4f" stroke="#ffc951"></path><path d="M0 404.9L75 490.6L160 391.9Z" fill="#ca2862" stroke="#ffc951"></path><path d="M202 0L116 92.7L224 127.7Z" fill="#de445a" stroke="#ffc951"></path><path d="M900 144.7L900 0L769 103.7Z" fill="#ca2862" stroke="#ffc951"></path><path d="M0 399.6L160 391.9L140 317.1Z" fill="#de445a" stroke="#ffc951"></path><path d="M42 122.7L36 239.1L112 112.4Z" fill="#fc8b4a" stroke="#ffc951"></path><path d="M112 112.4L36 239.1L206 233.4Z" fill="#ca2862" stroke="#ffc951"></path><path d="M36 239.1L22 272.9L140 317.1Z" fill="#fc8b4a" stroke="#ffc951"></path><path d="M0 404.9L45 502.3L75 490.6Z" fill="#de445a" stroke="#ffc951"></path><path d="M75 490.6L45 502.3L147 600Z" fill="#d5365e" stroke="#ffc951"></path><path d="M36 239.1L0 265.1L22 272.9Z" fill="#fc8b4a" stroke="#ffc951"></path><path d="M116 92.7L42 122.7L112 112.4Z" fill="#f97c4c" stroke="#ffc951"></path><path d="M49 0L42 122.7L116 92.7Z" fill="#fc8b4a" stroke="#ffc951"></path><path d="M0 234.4L0 265.1L36 239.1Z" fill="#ee6052" stroke="#ffc951"></path><path d="M22 272.9L0 399.6L140 317.1Z" fill="#f97c4c" stroke="#ffc951"></path><path d="M0 265.1L0 399.6L22 272.9Z" fill="#f46e4f" stroke="#ffc951"></path><path d="M0 399.6L0 404.9L160 391.9Z" fill="#bd1a65" stroke="#ffc951"></path><path d="M0 145.7L0 234.4L36 239.1Z" fill="#ca2862" stroke="#ffc951"></path><path d="M0 404.9L0 505.3L45 502.3Z" fill="#ee6052" stroke="#ffc951"></path><path d="M45 502.3L0 600L147 600Z" fill="#ca2862" stroke="#ffc951"></path><path d="M0 0L0 145.7L42 122.7Z" fill="#f97c4c" stroke="#ffc951"></path><path d="M42 122.7L0 145.7L36 239.1Z" fill="#de445a" stroke="#ffc951"></path><path d="M202 0L49 0L116 92.7Z" fill="#bd1a65" stroke="#ffc951"></path><path d="M0 505.3L0 600L45 502.3Z" fill="#f46e4f" stroke="#ffc951"></path><path d="M49 0L0 0L42 122.7Z" fill="#fc8b4a" stroke="#ffc951"></path></g></svg>