<svg id="visual" viewBox="0 0 900 600" width="900" height="600" xmlns="http://www.w3.org/2000/svg" xmlns:xlink="http://www.w3.org/1999/xlink" version="1.1"><path d="M0 43L11.5 47C23 51 46 59 69 54C92 49 115 31 138.2 23C161.3 15 184.7 17 207.8 27C231 37 254 55 277 55C300 55 323 37 346 39C369 41 392 63 415.2 63C438.3 63 461.7 41 484.8 39C508 37 531 55 554 65C577 75 600 77 623 80C646 83 669 87 692.2 88C715.3 89 738.7 87 761.8 85C785 83 808 81 831 75C854 69 877 59 888.5 54L900 49L900 0L888.5 0C877 0 854 0 831 0C808 0 785 0 761.8 0C738.7 0 715.3 0 692.2 0C669 0 646 0 623 0C600 0 577 0 554 0C531 0 508 0 484.8 0C461.7 0 438.3 0 415.2 0C392 0 369 0 346 0C323 0 300 0 277 0C254 0 231 0 207.8 0C184.7 0 161.3 0 138.2 0C115 0 92 0 69 0C46 0 23 0 11.5 0L0 0Z" fill="#f36950"></path><path d="M0 157L11.5 152C23 147 46 137 69 125C92 113 115 99 138.2 95C161.3 91 184.7 97 207.8 116C231 135 254 167 277 157C300 147 323 95 346 86C369 77 392 111 415.2 127C438.3 143 461.7 141 484.8 140C508 139 531 139 554 144C577 149 600 159 623 164C646 169 669 169 692.2 160C715.3 151 738.7 133 761.8 135C785 137 808 159 831 153C854 147 877 113 888.5 96L900 79L900 47L888.5 52C877 57 854 67 831 73C808 79 785 81 761.8 83C738.7 85 715.3 87 692.2 86C669 85 646 81 623 78C600 75 577 73 554 63C531 53 508 35 484.8 37C461.7 39 438.3 61 415.2 61C392 61 369 39 346 37C323 35 300 53 277 53C254 53 231 35 207.8 25C184.7 15 161.3 13 138.2 21C115 29 92 47 69 52C46 57 23 49 11.5 45L0 41Z" fill="#ec5954"></path><path d="M0 379L11.5 350C23 321 46 263 69 233C92 203 115 201 138.2 207C161.3 213 184.7 227 207.8 236C231 245 254 249 277 233C300 217 323 181 346 175C369 169 392 193 415.2 211C438.3 229 461.7 241 484.8 256C508 271 531 289 554 297C577 305 600 303 623 306C646 309 669 317 692.2 301C715.3 285 738.7 245 761.8 235C785 225 808 245 831 257C854 269 877 273 888.5 275L900 277L900 77L888.5 94C877 111 854 145 831 151C808 157 785 135 761.8 133C738.7 131 715.3 149 692.2 158C669 167 646 167 623 162C600 157 577 147 554 142C531 137 508 137 484.8 138C461.7 139 438.3 141 415.2 125C392 109 369 75 346 84C323 93 300 145 277 155C254 165 231 133 207.8 114C184.7 95 161.3 89 138.2 93C115 97 92 111 69 123C46 135 23 145 11.5 150L0 155Z" fill="#e34958"></path><path d="M0 451L11.5 418C23 385 46 319 69 295C92 271 115 289 138.2 297C161.3 305 184.7 303 207.8 297C231 291 254 281 277 265C300 249 323 227 346 226C369 225 392 245 415.2 259C438.3 273 461.7 281 484.8 305C508 329 531 369 554 383C577 397 600 385 623 386C646 387 669 401 692.2 386C715.3 371 738.7 327 761.8 315C785 303 808 323 831 330C854 337 877 331 888.5 328L900 325L900 275L888.5 273C877 271 854 267 831 255C808 243 785 223 761.8 233C738.7 243 715.3 283 692.2 299C669 315 646 307 623 304C600 301 577 303 554 295C531 287 508 269 484.8 254C461.7 239 438.3 227 415.2 209C392 191 369 167 346 173C323 179 300 215 277 231C254 247 231 243 207.8 234C184.7 225 161.3 211 138.2 205C115 199 92 201 69 231C46 261 23 319 11.5 348L0 377Z" fill="#d83a5d"></path><path d="M0 517L11.5 522C23 527 46 537 69 523C92 509 115 471 138.2 458C161.3 445 184.7 457 207.8 470C231 483 254 497 277 501C300 505 323 499 346 496C369 493 392 493 415.2 482C438.3 471 461.7 449 484.8 450C508 451 531 475 554 476C577 477 600 455 623 454C646 453 669 473 692.2 486C715.3 499 738.7 505 761.8 495C785 485 808 459 831 444C854 429 877 425 888.5 423L900 421L900 323L888.5 326C877 329 854 335 831 328C808 321 785 301 761.8 313C738.7 325 715.3 369 692.2 384C669 399 646 385 623 384C600 383 577 395 554 381C531 367 508 327 484.8 303C461.7 279 438.3 271 415.2 257C392 243 369 223 346 224C323 225 300 247 277 263C254 279 231 289 207.8 295C184.7 301 161.3 303 138.2 295C115 287 92 269 69 293C46 317 23 383 11.5 416L0 449Z" fill="#cc2b61"></path><path d="M0 553L11.5 556C23 559 46 565 69 567C92 569 115 567 138.2 560C161.3 553 184.7 541 207.8 542C231 543 254 557 277 556C300 555 323 539 346 537C369 535 392 547 415.2 549C438.3 551 461.7 543 484.8 548C508 553 531 571 554 571C577 571 600 553 623 551C646 549 669 563 692.2 568C715.3 573 738.7 569 761.8 563C785 557 808 549 831 548C854 547 877 553 888.5 556L900 559L900 419L888.5 421C877 423 854 427 831 442C808 457 785 483 761.8 493C738.7 503 715.3 497 692.2 484C669 471 646 451 623 452C600 453 577 475 554 474C531 473 508 449 484.8 448C461.7 447 438.3 469 415.2 480C392 491 369 491 346 494C323 497 300 503 277 499C254 495 231 481 207.8 468C184.7 455 161.3 443 138.2 456C115 469 92 507 69 521C46 535 23 525 11.5 520L0 515Z" fill="#bf1c65"></path><path d="M0 601L11.5 601C23 601 46 601 69 601C92 601 115 601 138.2 601C161.3 601 184.7 601 207.8 601C231 601 254 601 277 601C300 601 323 601 346 601C369 601 392 601 415.2 601C438.3 601 461.7 601 484.8 601C508 601 531 601 554 601C577 601 600 601 623 601C646 601 669 601 692.2 601C715.3 601 738.7 601 761.8 601C785 601 808 601 831 601C854 601 877 601 888.5 601L900 601L900 557L888.5 554C877 551 854 545 831 546C808 547 785 555 761.8 561C738.7 567 715.3 571 692.2 566C669 561 646 547 623 549C600 551 577 569 554 569C531 569 508 551 484.8 546C461.7 541 438.3 549 415.2 547C392 545 369 533 346 535C323 537 300 553 277 554C254 555 231 541 207.8 540C184.7 539 161.3 551 138.2 558C115 565 92 567 69 565C46 563 23 557 11.5 554L0 551Z" fill="#b00b69"></path></svg>